<?xml version="1.0" encoding="utf-8"?>
<!-- Generator: Adobe Illustrator 20.0.0, SVG Export Plug-In . SVG Version: 6.00 Build 0)  -->
<svg version="1.0" id="Camada_1" xmlns="http://www.w3.org/2000/svg" xmlns:xlink="http://www.w3.org/1999/xlink" x="0px" y="0px"
	 viewBox="0 0 100 100" enable-background="new 0 0 100 100" xml:space="preserve">
<path fill="#FFFFFF" d="M80.1,63.32c1.51,3.36,4.9,5.71,8.82,5.71c5.34,0,9.68-4.34,9.68-9.68c0-5.34-4.34-9.68-9.68-9.68
	c-1.64,0-3.19,0.42-4.55,1.15c1.05-5.35,0.99-9.3,0.98-9.65c-0.02-0.83-0.7-1.49-1.53-1.49H59.06c-1.05-1.66-2.34-3.18-3.61-4.68
	c-3.1-3.65-6.3-7.43-6.48-13.29c0.05-9.02,7.08-13.32,7.4-13.52c0.73-0.43,0.97-1.36,0.55-2.08c-0.43-0.73-1.37-0.97-2.09-0.55
	c-0.36,0.21-8.85,5.32-8.91,16.19c0.22,6.98,3.93,11.36,7.2,15.22c0.79,0.93,1.54,1.82,2.22,2.71h-8.76
	c-1.14-2.62-3.02-4.85-4.87-7.02c-3.1-3.66-6.3-7.43-6.48-13.29c0.05-9.04,7.1-13.34,7.4-13.52c0.72-0.43,0.97-1.36,0.54-2.08
	c-0.43-0.73-1.36-0.97-2.09-0.55c-0.36,0.21-8.84,5.32-8.9,16.19c0.21,6.98,3.92,11.36,7.2,15.22c1.47,1.73,2.83,3.35,3.79,5.05
	H9.77c-0.41,0-0.8,0.16-1.09,0.45c-0.28,0.29-0.44,0.69-0.44,1.1C8.25,41.57,9,69.71,30.84,79.15H3.38c-0.58,0-1.1,0.22-1.46,0.61
	c-0.24,0.25-0.52,0.7-0.52,1.39c0,2.29,4.93,8.76,7.82,8.76H19c0.01,0.29,0.1,0.56,0.26,0.8l2.86,4.14
	c0.91,1.36,2.31,2.14,3.85,2.14h41.87c1.42,0,2.75-0.79,3.61-2.12l2.88-4.16c0.17-0.24,0.26-0.51,0.26-0.8H86c2.89,0,6.2-6,6.2-8.45
	c0-0.58-0.15-1.07-0.43-1.46c-0.39-0.54-1-0.85-1.69-0.85H63.32c4.04-1.69,7.58-4.09,10.61-7.19C76.54,69.29,78.55,66.33,80.1,63.32
	z M82.51,57.7c0.07-0.32,0.18-0.63,0.31-0.93l0.01-0.01c1-2.37,3.36-4.04,6.09-4.04c3.66,0,6.63,2.97,6.63,6.63
	c0,3.66-2.97,6.63-6.63,6.63c-3.65,0-6.63-2.97-6.63-6.63C82.29,58.78,82.36,58.23,82.51,57.7z M68.91,93.18
	c-0.11,0.18-0.53,0.76-1.07,0.76H25.97c-0.71,0-1.15-0.54-1.32-0.8l-2.23-3.23h48.75L68.91,93.18z M89.01,82.2
	c-0.5,1.56-2.24,4.29-3.1,4.66H71.62l-49.77,0.01c-0.01-0.01-0.02,0-0.02,0H9.31c-0.89-0.23-3.32-2.92-4.37-4.67H89.01z M46.8,79.15
	c-14.42,0-24.76-6.32-30.74-18.78c-3.47-7.21-4.42-14.53-4.67-17.64h70.88c-0.21,4.46-1.57,17.94-10.54,27.12
	C65.69,76.02,57.3,79.15,46.8,79.15z"/>
</svg>
