<svg version="1" xmlns="http://www.w3.org/2000/svg" viewBox="0 0 427.984 103.041"><path fill="#FFF" d="M83.98 9.858H27.327A13.307 13.307 0 0 0 13.99 23.193v56.655c0 7.366 5.95 13.335 13.336 13.335H83.98a13.32 13.32 0 0 0 13.336-13.335V23.193A13.307 13.307 0 0 0 83.98 9.858zM28.123 23.6l2.092-5.396 2.092 5.397 5.805.307-4.508 3.693 1.47 5.59-4.857-3.152-4.867 3.153 1.47-5.59-4.48-3.693 5.784-.306zM88.98 77.267c0 4.918-2.336 7.58-7.223 7.58H30.234c-4.887 0-7.897-2.663-7.897-7.58.082-30.087 28.128-59.175 59.42-59.062 4.886 0 7.222 2.653 7.222 7.55v51.512zm196.062 1.796c-.388-1.224-.877-1.847-1.47-1.847-.132 0-.6.112-1.387.275-.786.163-1.734.214-2.877.214-3.56 0-5.326-2.418-5.326-7.305V12.03c0-1.438-1.326-2.172-4.183-2.172-2.827 0-4.153.735-4.153 2.173v59.155c0 5.08 1.306 8.642 3.908 10.65 2.612 2.01 5.57 3.01 8.886 3.01 4.806 0 7.194-.978 7.194-2.958 0-.652-.184-1.6-.592-2.825zm-134-2.387c-.796-1.275-1.53-1.928-2.173-1.928-.083 0-.225.05-.47.163-.214.082-.408.163-.622.245-3.418 1.704-7.172 2.58-11.192 2.58-5.54 0-9.5-1.58-11.835-4.672-2.366-3.102-4.1-8.152-4.1-15.13 0-12.63 5.377-18.926 14.967-18.926 3.612 0 7.193.786 10.774 2.357.113.06.246.112.358.163l.377.143a.79.79 0 0 0 .357.102c.592 0 1.275-.673 2.03-2.03.765-1.337 1.143-2.48 1.143-3.316 0-1.194-1.52-2.234-4.56-3.153-3.04-.928-6.49-1.408-10.316-1.408-6.276 0-11.57 1.765-15.917 5.264-2.336 1.897-4.163 4.64-5.52 8.232-1.357 3.55-2.03 7.795-2.03 12.733 0 9.397 2.01 16.212 6.05 20.425 4.02 4.234 10.13 6.326 18.334 6.326 4.152 0 7.764-.54 10.886-1.632 3.102-1.08 4.652-2.224 4.652-3.418 0-.785-.407-1.815-1.193-3.12zm46.116-40.708c-3.428-2.744-7.856-4.1-13.284-4.1-5.407 0-10.02.703-13.906 2.11-3.857 1.44-5.815 2.858-5.815 4.235 0 .653.44 1.632 1.255 2.97.837 1.325 1.57 1.978 2.224 1.978.133 0 .898-.357 2.285-1.092 4.04-2.03 8.417-3.06 13.192-3.06 7.253 0 10.865 2.743 10.865 8.304v4.642c-5.734.143-10.866.49-15.345 1.04-4.51.562-8.53 2.164-12.11 4.776-3.612 2.612-5.438 6.49-5.438 11.733 0 5.214 1.58 9.07 4.673 11.57 3.102 2.53 7.203 3.775 12.304 3.775 6.243 0 11.57-2.224 15.915-6.683v4.51c0 1.438 1.337 2.172 4.183 2.172 2.826 0 4.152-.735 4.152-2.173v-35.28c0-4.888-1.704-8.693-5.152-11.427zm-3.183 34.81c-2.438 2.205-4.836 3.888-7.172 5.05-2.357 1.195-5.132 1.797-8.366 1.797-5.622 0-8.417-2.714-8.417-8.152 0-3.418 1.357-5.805 4.08-7.193 1.378-.736 2.684-1.338 3.96-1.797 2.367-.918 7.662-1.388 15.916-1.388v11.683zm62.653-13.06c0-17.25-7.01-25.852-20.987-25.852-7.233 0-12.773 2.275-16.65 6.836-3.917 4.572-5.845 11.244-5.845 20.05 0 8.824 1.99 15.374 5.948 19.66 3.97 4.294 10.08 6.437 18.334 6.437 4.673 0 8.805-.735 12.417-2.173 3.612-1.47 5.397-2.826 5.397-4.152 0-.653-.397-1.663-1.244-2.99-.816-1.325-1.57-1.978-2.224-1.978-.143 0-.847.326-2.092.97-3.755 2.12-7.876 3.213-12.355 3.213-4.897 0-8.56-1.306-11.008-3.857-2.438-2.58-3.857-6.03-4.255-11.52h31.28c2.337-.765 3.154-2.203 3.286-4.642zm-34.566-2.876c.724-10.436 5.346-15.833 13.875-15.833 7.927 0 11.866 5.397 11.866 15.834h-25.74zM328.19 32.18c-2.817 0-4.204.736-4.204 2.205v36.26c-3.56 4.61-7.662 6.927-12.437 6.927-3.235 0-5.704-.847-7.47-2.53-1.744-1.683-3.427-4.05-3.427-7.09V34.384c0-1.47-1.326-2.204-4.183-2.204-2.826 0-4.152.736-4.152 2.205v34.383c0 5 2.255 8.937 5.132 11.763 2.877 2.848 7.04 4.266 12.498 4.266 5.183 0 9.774-2.255 14.04-6.713v4.59c0 1.44 1.438 2.174 4.182 2.174 2.765 0 4.152-.653 4.152-1.96V34.386c0-1.47-1.277-2.204-4.133-2.204zm85.69 13.96a18.748 18.748 0 0 0-.45-2.623 18.105 18.105 0 0 0-1.13-3.316 12.82 12.82 0 0 0-1.644-2.825 9.714 9.714 0 0 0-2.316-2.224c-2.99-1.927-6.326-2.886-10.1-2.886-5.866 0-11.14 2.724-15.753 8.203-2.234-5.48-6.958-8.203-14.15-8.203-5.44 0-10.214 2.204-14.366 6.662v-4.49c0-1.458-1.336-2.172-4.162-2.172-2.816 0-4.152.714-4.152 2.173v48.238c0 1.44 1.337 2.173 4.152 2.173 2.826 0 4.163-.735 4.163-2.173V46.332l1.49-1.683c.93-1.195 2.388-2.337 4.398-3.47 2.01-1.122 4.326-1.683 6.928-1.683 2.612 0 4.724.867 6.326 2.57 1.632 1.715 2.53 4.05 2.53 7.04v33.567c0 1.44 1.326 2.173 4.183 2.173 2.826 0 4.152-.735 4.152-2.173-.03-2.04-.03-4.02-.03-6.06 0-3.99.03-8.01.06-11.998 0-1.275 0-2.54.01-3.806 0-4.04.02-8.05-.02-12.05 0-.805-.01-1.62-.02-2.427 4.02-4.56 7.876-6.836 11.978-6.836 3.09 0 5.458.867 7.09 2.57.062.062.123.134.164.195 1.51 1.694 2.437 3.97 2.437 6.846v33.566c0 1.44 1.143 2.173 3.97 2.173 1.468 0 2.58-.194 3.315-.57.704-.378 1.06-.9 1.06-1.603V48.322c0-.755-.04-1.49-.112-2.183z"/></svg>