<svg version="1" xmlns="http://www.w3.org/2000/svg" viewBox="0 0 23.289 23.41"><path fill="#FFF" d="M11.307.497L1.155 5.354s-.055.037-.128.073c-.054.036-.127.091-.164.109-.219.146-.219.365-.219.365v11.356l.201.347 10.352 5.295s.256.091.438.091c.201 0 .42-.146.42-.146l10.297-5.24.256-.456V5.974s0-.128-.073-.237c-.091-.128-.676-.402-.676-.402L11.872.515l-.565-.018z"/><path fill="#9CA1A1" d="M18.317 7.161c.128.055.128.146 0 .219l-2.739 1.388a.601.601 0 0 1-.438 0L12.347 7.38c-.11-.055-.11-.146 0-.219l2.739-1.351a.555.555 0 0 1 .42 0l2.811 1.351z"/><g fill="#A6B0B1"><path d="M21.914 5.317c.128.055.128.146.018.201l-2.684 1.351a.555.555 0 0 1-.42 0L16.035 5.5c-.11-.055-.128-.146 0-.201l2.684-1.333a.555.555 0 0 1 .42 0l2.775 1.351zM14.629 9.023c.128.055.128.164 0 .219l-2.793 1.406a.602.602 0 0 1-.438 0L8.586 9.242c-.11-.055-.11-.164 0-.219l2.793-1.388a.555.555 0 0 1 .42 0l2.83 1.388zM14.575 5.317c.11.055.128.146 0 .201l-2.739 1.351a.555.555 0 0 1-.42 0L8.659 5.5c-.11-.055-.11-.146 0-.201l2.757-1.333a.555.555 0 0 1 .42 0l2.739 1.351zM18.19 3.528c.11.055.128.146 0 .201l-2.684 1.333a.555.555 0 0 1-.42 0L12.347 3.71c-.11-.055-.11-.146 0-.201l2.702-1.315a.555.555 0 0 1 .42 0l2.721 1.334zM10.887 7.161c.11.055.11.146 0 .219L8.093 8.768a.602.602 0 0 1-.438 0L4.898 7.38c-.11-.055-.11-.146 0-.219L7.71 5.792a.555.555 0 0 1 .42 0l2.757 1.369zM10.868 3.528c.11.055.11.146 0 .201L8.112 5.061a.555.555 0 0 1-.42 0L4.971 3.71c-.11-.055-.11-.146 0-.201l2.757-1.315a.555.555 0 0 1 .42 0l2.72 1.334zM14.502 1.757c.11.055.11.146 0 .201L11.8 3.272a.555.555 0 0 1-.42 0L8.678 1.958c-.11-.055-.11-.146 0-.201L11.38.461a.555.555 0 0 1 .42 0l2.702 1.296zM7.18 5.335c.11.055.11.146 0 .201L4.369 6.887a.555.555 0 0 1-.42 0l-2.72-1.369c-.11-.055-.11-.146.018-.201l2.812-1.333a.555.555 0 0 1 .42 0L7.18 5.335z"/></g><g fill="#A6B0B1"><path d="M15.652 16.71c0 .128.091.183.219.128l2.83-1.442c.128-.055.219-.219.219-.347v-3.086c0-.128-.091-.183-.219-.128l-2.83 1.442c-.128.055-.219.219-.219.347v3.086zM15.652 12.584c0 .128.091.183.219.128l2.83-1.442c.128-.055.219-.219.219-.347V7.837c0-.128-.11-.183-.219-.128l-2.83 1.442c-.128.055-.219.219-.219.347v3.086zM15.634 20.799c0 .128.091.183.219.128l2.83-1.442c.128-.055.219-.219.219-.347v-3.086c0-.128-.091-.183-.219-.128l-2.83 1.442c-.128.055-.219.219-.219.347v3.086z"/></g><g fill="#5F7177"><path d="M7.655 20.818c0 .128-.091.183-.219.128l-2.83-1.461c-.128-.055-.219-.219-.219-.347v-3.067c0-.128.091-.183.219-.128l2.83 1.442c.128.055.219.219.219.347v3.086zM3.949 14.793c0 .128-.091.183-.219.128L.9 13.478c-.128-.055-.219-.219-.219-.347v-3.086c0-.128.091-.183.219-.128l2.83 1.442c.128.055.219.219.219.347v3.087zM7.673 16.71c0 .128-.091.183-.219.128l-2.83-1.442c-.128-.055-.219-.219-.219-.347v-3.086c0-.128.091-.183.219-.128l2.83 1.442c.128.055.219.219.219.347v3.086zM11.416 18.608c0 .128-.091.183-.219.128l-2.83-1.442c-.128-.055-.219-.219-.219-.347v-3.086c0-.128.091-.183.219-.128l2.83 1.442c.128.055.219.219.219.347v3.086zM3.931 10.666c0 .128-.091.183-.219.128L.882 9.352c-.128-.055-.219-.219-.219-.347V5.92c0-.128.11-.183.219-.128l2.83 1.442c.128.055.219.219.219.347v3.085zM7.655 12.584c0 .128-.091.183-.219.128l-2.83-1.442c-.128-.055-.219-.219-.219-.347V7.837c0-.128.11-.183.219-.128l2.83 1.442c.128.055.219.219.219.347v3.086zM11.416 14.482c0 .128-.091.183-.219.128l-2.83-1.442c-.128-.055-.219-.219-.219-.347V9.735c0-.128.11-.183.219-.128l2.83 1.442c.128.055.219.219.219.347v3.086zM11.416 22.753c0 .128-.091.183-.219.128l-2.83-1.461c-.128-.055-.219-.219-.219-.347v-3.086c0-.128.091-.183.219-.128l2.83 1.442c.128.055.219.219.219.347v3.105zM3.949 18.919c0 .128-.091.183-.219.128L.9 17.604c-.128-.055-.219-.219-.219-.347v-3.086c0-.128.091-.183.219-.128l2.83 1.442c.128.055.219.219.219.347v3.087z"/></g><g fill="#9CA1A1"><path d="M19.376 14.793c0 .128.091.183.219.128l2.83-1.442c.128-.055.219-.219.219-.347v-3.086c0-.128-.091-.183-.201-.128l-2.83 1.442c-.128.055-.219.219-.219.347v3.086h-.018zM11.891 18.59c0 .128.091.183.219.128l2.83-1.442c.128-.055.219-.219.219-.347v-3.086c0-.128-.091-.183-.219-.128l-2.83 1.442c-.128.055-.219.219-.219.347v3.086zM19.358 10.685c0 .128.091.183.219.128l2.83-1.442a.428.428 0 0 0 .237-.347V5.956c0-.128-.11-.183-.219-.128l-2.83 1.442c-.128.055-.219.219-.219.347v3.067h-.018zM11.891 14.464c0 .128.091.183.219.128l2.83-1.442c.128-.055.219-.219.219-.347V9.717c0-.128-.11-.183-.219-.128l-2.83 1.442c-.128.055-.219.219-.219.347v3.086zM11.891 22.716c0 .128.091.183.219.128l2.83-1.442c.128-.055.219-.219.219-.347v-3.086c0-.128-.091-.183-.219-.128l-2.83 1.442c-.128.055-.219.219-.219.347v3.086zM19.376 18.882c0 .128.091.183.219.128l2.83-1.442c.128-.055.219-.219.219-.347v-3.086c0-.128-.091-.183-.201-.128l-2.83 1.442c-.128.055-.219.219-.219.347v3.086h-.018z"/></g></svg>