<svg version="1" xmlns="http://www.w3.org/2000/svg" viewBox="0 0 24 24"><circle fill="#657176" cx="12" cy="12" r="11.5"/><path fill="#D0D8D8" d="M16.671 8.549a.662.662 0 0 0-.182-.478l-.86-.9-1.388-1.452a.664.664 0 0 0-.47-.203.63.63 0 0 0-.469.182.629.629 0 0 0-.202.461.642.642 0 0 0 .186.474l1.388 1.452.86.9a.64.64 0 0 0 .465.207.633.633 0 0 0 .469-.182.634.634 0 0 0 .203-.461z"/><path fill="#FFF" d="M14.242 5.719a.68.68 0 0 0-.494-.203.655.655 0 0 0-.47.207.635.635 0 0 0-.187.471V12.177a3.427 3.427 0 0 0-2.221-.778c-.978 0-1.814.346-2.505 1.037a3.414 3.414 0 0 0-1.038 2.505c0 .978.346 1.814 1.038 2.505a3.413 3.413 0 0 0 2.505 1.037c.97 0 1.805-.346 2.505-1.038.692-.683 1.038-1.518 1.038-2.505V6.194c.001-.19-.042-.351-.171-.475z"/></svg>